<?xml version="1.0" encoding="UTF-8" standalone="no"?>
<!-- Generator: Adobe Illustrator 22.0.1, SVG Export Plug-In  -->

<svg
   xmlns:dc="http://purl.org/dc/elements/1.1/"
   xmlns:cc="http://creativecommons.org/ns#"
   xmlns:rdf="http://www.w3.org/1999/02/22-rdf-syntax-ns#"
   xmlns:svg="http://www.w3.org/2000/svg"
   xmlns="http://www.w3.org/2000/svg"
   xmlns:sodipodi="http://sodipodi.sourceforge.net/DTD/sodipodi-0.dtd"
   xmlns:inkscape="http://www.inkscape.org/namespaces/inkscape"
   version="1.1"
   x="0px"
   y="0px"
   width="265.253px"
   height="52.561px"
   viewBox="0 0 265.253 52.561"
   style="overflow:inherit;enable-background:new 0 0 265.253 52.561;"
   xml:space="preserve"
   id="svg72"
   sodipodi:docname="milenium.svg"
   inkscape:version="0.92.3 (2405546, 2018-03-11)"><metadata
   id="metadata76"><rdf:RDF><cc:Work
       rdf:about=""><dc:format>image/svg+xml</dc:format><dc:type
         rdf:resource="http://purl.org/dc/dcmitype/StillImage" /><dc:title></dc:title></cc:Work></rdf:RDF></metadata><sodipodi:namedview
   pagecolor="#ffffff"
   bordercolor="#666666"
   borderopacity="1"
   objecttolerance="10"
   gridtolerance="10"
   guidetolerance="10"
   inkscape:pageopacity="0"
   inkscape:pageshadow="2"
   inkscape:window-width="729"
   inkscape:window-height="480"
   id="namedview74"
   showgrid="false"
   inkscape:zoom="1.5306142"
   inkscape:cx="132.6265"
   inkscape:cy="26.2805"
   inkscape:window-x="196"
   inkscape:window-y="71"
   inkscape:window-maximized="0"
   inkscape:current-layer="g70" />
<style
   type="text/css"
   id="style2">
	.st0{fill:#9AD9F7;}
	.st1{fill:#FFFFFF;}
</style>
<defs
   id="defs4">
</defs>
<g
   id="g70">
	<g
   id="g50">
		<path
   class="st0"
   d="M0,50.53c0-1.256,0-2.51,0-3.765c1.394-0.044,2.788-0.087,4.181-0.13c0,1.341,0,2.682,0,4.023    C2.788,50.617,1.394,50.573,0,50.53z"
   id="path6" />
		<path
   class="st0"
   d="M12.43,50.893c0-1.496,0-2.994,0-4.49c1.394-0.04,2.787-0.079,4.183-0.117c0,1.574,0,3.149,0,4.725    C15.218,50.972,13.824,50.933,12.43,50.893z"
   id="path8" />
		<path
   class="st0"
   d="M24.862,51.22c0-1.715,0-3.431,0-5.146c1.394-0.035,2.788-0.07,4.183-0.105c0,1.785,0,3.571,0,5.355    C27.652,51.292,26.256,51.256,24.862,51.22z"
   id="path10" />
		<path
   class="st0"
   d="M37.294,51.512c0-1.909,0-3.819,0-5.729c1.396-0.031,2.789-0.061,4.183-0.092c0,1.972,0,3.943,0,5.915    C40.083,51.575,38.689,51.544,37.294,51.512z"
   id="path12" />
		<path
   class="st0"
   d="M49.726,51.769c0-2.08,0-4.161,0-6.241c1.394-0.028,2.788-0.055,4.183-0.081c0,2.134,0,4.268,0,6.401    C52.513,51.822,51.12,51.796,49.726,51.769z"
   id="path14" />
		<path
   class="st0"
   d="M62.158,51.989c0-2.228,0-4.455,0-6.683c1.394-0.023,2.789-0.046,4.183-0.067c0,2.272,0,4.545,0,6.817    C64.948,52.034,63.552,52.012,62.158,51.989z"
   id="path16" />
		<path
   class="st0"
   d="M74.589,52.174c0-2.351,0-4.701,0-7.051c1.396-0.019,2.789-0.038,4.183-0.056c0,2.387,0,4.775,0,7.163    C77.379,52.211,75.983,52.193,74.589,52.174z"
   id="path18" />
		<path
   class="st0"
   d="M87.022,52.322c0-2.45,0-4.899,0-7.35c1.394-0.014,2.787-0.029,4.183-0.042c0,2.478,0,4.957,0,7.435    C89.809,52.352,88.415,52.338,87.022,52.322z"
   id="path20" />
		<path
   class="st0"
   d="M99.454,52.436c0-2.525,0-5.051,0-7.576c1.394-0.011,2.788-0.021,4.183-0.031c0,2.547,0,5.092,0,7.638    C102.241,52.457,100.848,52.447,99.454,52.436z"
   id="path22" />
		<path
   class="st0"
   d="M111.886,52.513c0-2.577,0-5.155,0-7.731c1.394-0.008,2.789-0.013,4.183-0.019c0,2.59,0,5.179,0,7.768    C114.675,52.527,113.28,52.52,111.886,52.513z"
   id="path24" />
		<path
   class="st0"
   d="M124.318,52.556c0-2.605,0-5.21,0-7.815c1.394-0.003,2.789-0.005,4.183-0.006c0,2.609,0,5.218,0,7.827    C127.106,52.56,125.712,52.559,124.318,52.556z"
   id="path26" />
		<path
   class="st0"
   d="M136.749,52.561c0-2.609,0-5.218,0-7.827c1.396,0.001,2.789,0.003,4.185,0.006c0,2.605,0,5.21,0,7.815    C139.539,52.559,138.145,52.56,136.749,52.561z"
   id="path28" />
		<path
   class="st0"
   d="M149.184,52.532c0-2.589,0-5.178,0-7.768c1.394,0.006,2.789,0.012,4.183,0.019c0,2.576,0,5.154,0,7.731    C151.973,52.52,150.577,52.527,149.184,52.532z"
   id="path30" />
		<path
   class="st0"
   d="M161.616,52.466c0-2.546,0-5.091,0-7.638c1.394,0.01,2.789,0.02,4.183,0.031c0,2.525,0,5.051,0,7.576    C164.405,52.447,163.01,52.457,161.616,52.466z"
   id="path32" />
		<path
   class="st0"
   d="M174.047,52.366c0-2.478,0-4.957,0-7.435c1.394,0.013,2.788,0.028,4.183,0.042c0,2.451,0,4.9,0,7.35    C176.835,52.338,175.441,52.352,174.047,52.366z"
   id="path34" />
		<path
   class="st0"
   d="M186.479,52.229c0-2.388,0-4.775,0-7.163c1.394,0.017,2.789,0.036,4.183,0.056c0,2.35,0,4.701,0,7.051    C189.269,52.193,187.873,52.211,186.479,52.229z"
   id="path36" />
		<path
   class="st0"
   d="M198.912,52.057c0-2.272,0-4.545,0-6.817c1.394,0.021,2.788,0.044,4.183,0.067c0,2.228,0,4.455,0,6.683    C201.699,52.012,200.305,52.034,198.912,52.057z"
   id="path38" />
		<path
   class="st0"
   d="M211.344,51.848c0-2.134,0-4.268,0-6.401c1.394,0.026,2.789,0.053,4.183,0.081c0,2.08,0,4.161,0,6.241    C214.133,51.796,212.739,51.822,211.344,51.848z"
   id="path40" />
		<path
   class="st0"
   d="M223.776,51.605c0-1.972,0-3.943,0-5.915c1.396,0.031,2.789,0.061,4.183,0.092c0,1.91,0,3.82,0,5.729    C226.565,51.544,225.172,51.575,223.776,51.605z"
   id="path42" />
		<path
   class="st0"
   d="M236.207,51.325c0-1.784,0-3.57,0-5.355c1.394,0.035,2.788,0.069,4.183,0.105c0,1.715,0,3.431,0,5.146    C238.995,51.256,237.601,51.292,236.207,51.325z"
   id="path44" />
		<path
   class="st0"
   d="M248.639,51.01c0-1.575,0-3.15,0-4.725c1.394,0.038,2.789,0.077,4.183,0.117c0,1.496,0,2.994,0,4.49    C251.429,50.933,250.033,50.972,248.639,51.01z"
   id="path46" />
		<path
   class="st0"
   d="M261.072,50.659c0-1.341,0-2.682,0-4.023c1.394,0.042,2.788,0.085,4.181,0.13c0,1.255,0,2.509,0,3.765    C263.859,50.573,262.465,50.617,261.072,50.659z"
   id="path48" />
	</g>
	<g
   id="g68"
   style="fill:#a9b5bc;fill-opacity:1">
		<path
   class="st1"
   d="M8.36,12.819l-4.04,14.212H0L7.211,0.035l7.314,17.87l7.315-17.87l7.211,26.996h-4.319l-4.04-14.212    l-6.166,15.326L8.36,12.819z"
   id="path52"
   style="fill:#a9b5bc;fill-opacity:1" />
		<path
   class="st1"
   d="M47.302,27.031V1.184h4.216v25.846H47.302z"
   id="path54"
   style="fill:#a9b5bc;fill-opacity:1" />
		<path
   class="st1"
   d="M70.884,27.031V1.184H75.1v21.98h6.827v3.866H70.884z"
   id="path56"
   style="fill:#a9b5bc;fill-opacity:1" />
		<path
   class="st1"
   d="M105.439,5.016v5.922h7.419v3.726h-7.419v8.534h9.719v3.832h-13.933V14.665h-2.299v-3.726h2.299V1.184h13.933    v3.832H105.439z"
   id="path58"
   style="fill:#a9b5bc;fill-opacity:1" />
		<path
   class="st1"
   d="M137.973,10.172v16.859h-3.972V0l16.686,18.009V1.184h3.97v26.961L137.973,10.172z"
   id="path60"
   style="fill:#a9b5bc;fill-opacity:1" />
		<path
   class="st1"
   d="M175.349,27.031V1.184h4.214v25.846H175.349z"
   id="path62"
   style="fill:#a9b5bc;fill-opacity:1" />
		<path
   class="st1"
   d="M207.969,27.589c-1.256,0-2.43-0.239-3.525-0.714c-1.094-0.476-2.048-1.12-2.862-1.933    c-0.814-0.813-1.459-1.765-1.937-2.857c-0.476-1.091-0.714-2.264-0.714-3.518V1.184h4.214v17.354c0,0.673,0.123,1.305,0.367,1.896    c0.244,0.591,0.586,1.101,1.027,1.53c0.442,0.429,0.952,0.772,1.532,1.026c0.582,0.255,1.207,0.383,1.881,0.383    c0.651,0,1.273-0.128,1.864-0.383c0.591-0.254,1.102-0.597,1.532-1.026c0.43-0.429,0.772-0.939,1.029-1.53    c0.255-0.591,0.382-1.223,0.382-1.896V1.184h4.216v17.382c0,1.253-0.24,2.426-0.716,3.518c-0.476,1.091-1.123,2.044-1.937,2.857    c-0.814,0.813-1.768,1.457-2.862,1.933C210.367,27.35,209.203,27.589,207.969,27.589z"
   id="path64"
   style="fill:#a9b5bc;fill-opacity:1" />
		<path
   class="st1"
   d="M242.47,12.819l-4.039,14.212h-4.319l7.211-26.996l7.314,17.87l7.314-17.87l7.211,26.996h-4.319    l-4.039-14.212l-6.166,15.326L242.47,12.819z"
   id="path66"
   style="fill:#a9b5bc;fill-opacity:1" />
	</g>
</g>
</svg>